<?xml version="1.0"?>
<svg xmlns="http://www.w3.org/2000/svg" xmlns:xlink="http://www.w3.org/1999/xlink" version="1.1" width="320px" height="320px" viewBox="0 0 320 320"><rect x="0" y="0" width="320" height="320" fill="#ffffff" fill-opacity="1"/><path fill="#000000" fill-opacity="1" d="M11,11L74,11L74,20L11,20ZM92,11L101,11L101,20L92,20ZM146,11L155,11L155,20L146,20ZM173,11L218,11L218,20L173,20ZM227,11L236,11L236,20L227,20ZM245,11L308,11L308,20L245,20ZM11,20L20,20L20,29L11,29ZM65,20L74,20L74,29L65,29ZM83,20L101,20L101,29L83,29ZM110,20L128,20L128,29L110,29ZM146,20L173,20L173,29L146,29ZM182,20L191,20L191,29L182,29ZM209,20L236,20L236,29L209,29ZM245,20L254,20L254,29L245,29ZM299,20L308,20L308,29L299,29ZM11,29L20,29L20,38L11,38ZM29,29L56,29L56,38L29,38ZM65,29L74,29L74,38L65,38ZM92,29L119,29L119,38L92,38ZM173,29L200,29L200,38L173,38ZM218,29L227,29L227,38L218,38ZM245,29L254,29L254,38L245,38ZM263,29L290,29L290,38L263,38ZM299,29L308,29L308,38L299,38ZM11,38L20,38L20,47L11,47ZM29,38L56,38L56,47L29,47ZM65,38L74,38L74,47L65,47ZM83,38L101,38L101,47L83,47ZM110,38L119,38L119,47L110,47ZM146,38L155,38L155,47L146,47ZM191,38L218,38L218,47L191,47ZM227,38L236,38L236,47L227,47ZM245,38L254,38L254,47L245,47ZM263,38L290,38L290,47L263,47ZM299,38L308,38L308,47L299,47ZM11,47L20,47L20,56L11,56ZM29,47L56,47L56,56L29,56ZM65,47L74,47L74,56L65,56ZM101,47L110,47L110,56L101,56ZM119,47L137,47L137,56L119,56ZM200,47L209,47L209,56L200,56ZM218,47L227,47L227,56L218,56ZM245,47L254,47L254,56L245,56ZM263,47L290,47L290,56L263,56ZM299,47L308,47L308,56L299,56ZM11,56L20,56L20,65L11,65ZM65,56L74,56L74,65L65,65ZM83,56L92,56L92,65L83,65ZM101,56L110,56L110,65L101,65ZM128,56L173,56L173,65L128,65ZM182,56L191,56L191,65L182,65ZM209,56L218,56L218,65L209,65ZM227,56L236,56L236,65L227,65ZM245,56L254,56L254,65L245,65ZM299,56L308,56L308,65L299,65ZM11,65L74,65L74,74L11,74ZM83,65L92,65L92,74L83,74ZM101,65L110,65L110,74L101,74ZM119,65L128,65L128,74L119,74ZM137,65L146,65L146,74L137,74ZM155,65L164,65L164,74L155,74ZM173,65L182,65L182,74L173,74ZM191,65L200,65L200,74L191,74ZM209,65L218,65L218,74L209,74ZM227,65L236,65L236,74L227,74ZM245,65L308,65L308,74L245,74ZM119,74L137,74L137,83L119,83ZM164,74L173,74L173,83L164,83ZM182,74L209,74L209,83L182,83ZM218,74L227,74L227,83L218,83ZM11,83L56,83L56,92L11,92ZM65,83L110,83L110,92L65,92ZM119,83L128,83L128,92L119,92ZM137,83L182,83L182,92L137,92ZM200,83L218,83L218,92L200,92ZM227,83L245,83L245,92L227,92ZM254,83L263,83L263,92L254,92ZM272,83L281,83L281,92L272,92ZM290,83L299,83L299,92L290,92ZM38,92L56,92L56,101L38,101ZM74,92L101,92L101,101L74,101ZM155,92L164,92L164,101L155,101ZM173,92L182,92L182,101L173,101ZM191,92L254,92L254,101L191,101ZM263,92L290,92L290,101L263,101ZM29,101L38,101L38,110L29,110ZM56,101L83,101L83,110L56,110ZM92,101L101,101L101,110L92,110ZM110,101L128,101L128,110L110,110ZM146,101L182,101L182,110L146,110ZM191,101L200,101L200,110L191,110ZM209,101L218,101L218,110L209,110ZM236,101L245,101L245,110L236,110ZM254,101L281,101L281,110L254,110ZM290,101L299,101L299,110L290,110ZM29,110L38,110L38,119L29,119ZM56,110L65,110L65,119L56,119ZM74,110L119,110L119,119L74,119ZM137,110L146,110L146,119L137,119ZM182,110L227,110L227,119L182,119ZM236,110L254,110L254,119L236,119ZM281,110L308,110L308,119L281,119ZM29,119L47,119L47,128L29,128ZM56,119L83,119L83,128L56,128ZM92,119L101,119L101,128L92,128ZM110,119L119,119L119,128L110,128ZM146,119L182,119L182,128L146,128ZM254,119L263,119L263,128L254,128ZM281,119L299,119L299,128L281,128ZM20,128L38,128L38,137L20,137ZM47,128L56,128L56,137L47,137ZM83,128L92,128L92,137L83,137ZM101,128L110,128L110,137L101,137ZM119,128L164,128L164,137L119,137ZM173,128L191,128L191,137L173,137ZM200,128L218,128L218,137L200,137ZM236,128L272,128L272,137L236,137ZM281,128L290,128L290,137L281,137ZM20,137L29,137L29,146L20,146ZM65,137L110,137L110,146L65,146ZM128,137L182,137L182,146L128,146ZM191,137L200,137L200,146L191,146ZM227,137L245,137L245,146L227,146ZM254,137L281,137L281,146L254,146ZM290,137L299,137L299,146L290,146ZM11,146L20,146L20,155L11,155ZM47,146L65,146L65,155L47,155ZM74,146L110,146L110,155L74,155ZM119,146L137,146L137,155L119,155ZM182,146L200,146L200,155L182,155ZM218,146L227,146L227,155L218,155ZM236,146L254,146L254,155L236,155ZM290,146L308,146L308,155L290,155ZM47,155L56,155L56,164L47,164ZM65,155L74,155L74,164L65,164ZM92,155L101,155L101,164L92,164ZM119,155L128,155L128,164L119,164ZM137,155L164,155L164,164L137,164ZM173,155L182,155L182,164L173,164ZM191,155L200,155L200,164L191,164ZM209,155L218,155L218,164L209,164ZM227,155L245,155L245,164L227,164ZM254,155L263,155L263,164L254,164ZM290,155L299,155L299,164L290,164ZM20,164L29,164L29,173L20,173ZM38,164L65,164L65,173L38,173ZM155,164L164,164L164,173L155,173ZM173,164L182,164L182,173L173,173ZM200,164L218,164L218,173L200,173ZM227,164L236,164L236,173L227,173ZM263,164L272,164L272,173L263,173ZM281,164L290,164L290,173L281,173ZM11,173L38,173L38,182L11,182ZM47,173L56,173L56,182L47,182ZM65,173L101,173L101,182L65,182ZM110,173L128,173L128,182L110,182ZM146,173L182,173L182,182L146,182ZM209,173L218,173L218,182L209,182ZM254,173L272,173L272,182L254,182ZM299,173L308,173L308,182L299,182ZM20,182L29,182L29,191L20,191ZM38,182L47,182L47,191L38,191ZM56,182L65,182L65,191L56,191ZM74,182L83,182L83,191L74,191ZM101,182L119,182L119,191L101,191ZM137,182L146,182L146,191L137,191ZM182,182L209,182L209,191L182,191ZM218,182L227,182L227,191L218,191ZM245,182L254,182L254,191L245,191ZM272,182L281,182L281,191L272,191ZM299,182L308,182L308,191L299,191ZM29,191L38,191L38,200L29,200ZM47,191L56,191L56,200L47,200ZM65,191L74,191L74,200L65,200ZM83,191L119,191L119,200L83,200ZM146,191L155,191L155,200L146,200ZM164,191L182,191L182,200L164,200ZM191,191L209,191L209,200L191,200ZM236,191L254,191L254,200L236,200ZM272,191L281,191L281,200L272,200ZM290,191L299,191L299,200L290,200ZM11,200L20,200L20,209L11,209ZM47,200L56,200L56,209L47,209ZM83,200L92,200L92,209L83,209ZM101,200L110,200L110,209L101,209ZM119,200L155,200L155,209L119,209ZM173,200L182,200L182,209L173,209ZM191,200L227,200L227,209L191,209ZM236,200L263,200L263,209L236,209ZM281,200L290,200L290,209L281,209ZM299,200L308,200L308,209L299,209ZM11,209L20,209L20,218L11,218ZM38,209L47,209L47,218L38,218ZM65,209L74,209L74,218L65,218ZM92,209L110,209L110,218L92,218ZM128,209L191,209L191,218L128,218ZM209,209L245,209L245,218L209,218ZM254,209L272,209L272,218L254,218ZM299,209L308,209L308,218L299,218ZM11,218L20,218L20,227L11,227ZM29,218L65,218L65,227L29,227ZM74,218L92,218L92,227L74,227ZM119,218L137,218L137,227L119,227ZM182,218L200,218L200,227L182,227ZM218,218L236,218L236,227L218,227ZM245,218L254,218L254,227L245,227ZM272,218L281,218L281,227L272,227ZM290,218L308,218L308,227L290,227ZM11,227L20,227L20,236L11,236ZM29,227L47,227L47,236L29,236ZM56,227L83,227L83,236L56,236ZM101,227L110,227L110,236L101,236ZM119,227L128,227L128,236L119,236ZM137,227L164,227L164,236L137,236ZM191,227L218,227L218,236L191,236ZM227,227L281,227L281,236L227,236ZM83,236L110,236L110,245L83,245ZM146,236L155,236L155,245L146,245ZM173,236L182,236L182,245L173,245ZM200,236L209,236L209,245L200,245ZM227,236L236,236L236,245L227,245ZM263,236L290,236L290,245L263,245ZM11,245L74,245L74,254L11,254ZM83,245L92,245L92,254L83,254ZM110,245L128,245L128,254L110,254ZM146,245L182,245L182,254L146,254ZM209,245L218,245L218,254L209,254ZM227,245L236,245L236,254L227,254ZM245,245L254,245L254,254L245,254ZM263,245L272,245L272,254L263,254ZM290,245L299,245L299,254L290,254ZM11,254L20,254L20,263L11,263ZM65,254L74,254L74,263L65,263ZM110,254L119,254L119,263L110,263ZM137,254L146,254L146,263L137,263ZM182,254L209,254L209,263L182,263ZM227,254L236,254L236,263L227,263ZM263,254L281,254L281,263L263,263ZM299,254L308,254L308,263L299,263ZM11,263L20,263L20,272L11,272ZM29,263L56,263L56,272L29,272ZM65,263L74,263L74,272L65,272ZM83,263L119,263L119,272L83,272ZM146,263L164,263L164,272L146,272ZM173,263L182,263L182,272L173,272ZM200,263L218,263L218,272L200,272ZM227,263L272,263L272,272L227,272ZM281,263L290,263L290,272L281,272ZM299,263L308,263L308,272L299,272ZM11,272L20,272L20,281L11,281ZM29,272L56,272L56,281L29,281ZM65,272L74,272L74,281L65,281ZM83,272L92,272L92,281L83,281ZM119,272L146,272L146,281L119,281ZM173,272L209,272L209,281L173,281ZM218,272L227,272L227,281L218,281ZM263,272L299,272L299,281L263,281ZM11,281L20,281L20,290L11,290ZM29,281L56,281L56,290L29,290ZM65,281L74,281L74,290L65,290ZM83,281L101,281L101,290L83,290ZM128,281L191,281L191,290L128,290ZM209,281L245,281L245,290L209,290ZM254,281L263,281L263,290L254,290ZM11,290L20,290L20,299L11,299ZM65,290L74,290L74,299L65,299ZM83,290L110,290L110,299L83,299ZM119,290L137,290L137,299L119,299ZM182,290L209,290L209,299L182,299ZM227,290L245,290L245,299L227,299ZM254,290L281,290L281,299L254,299ZM290,290L308,290L308,299L290,299ZM11,299L74,299L74,308L11,308ZM83,299L92,299L92,308L83,308ZM119,299L128,299L128,308L119,308ZM137,299L173,299L173,308L137,308ZM191,299L209,299L209,308L191,308ZM227,299L254,299L254,308L227,308ZM272,299L281,299L281,308L272,308ZM290,299L299,299L299,308L290,308Z"/></svg>
