<?xml version="1.0"?>
<svg xmlns="http://www.w3.org/2000/svg" xmlns:xlink="http://www.w3.org/1999/xlink" version="1.1" width="320px" height="320px" viewBox="0 0 320 320"><rect x="0" y="0" width="320" height="320" fill="#ffffff" fill-opacity="1"/><path fill="#000000" fill-opacity="1" d="M11,11L74,11L74,20L11,20ZM101,11L110,11L110,20L101,20ZM119,11L128,11L128,20L119,20ZM146,11L155,11L155,20L146,20ZM182,11L218,11L218,20L182,20ZM227,11L236,11L236,20L227,20ZM245,11L308,11L308,20L245,20ZM11,20L20,20L20,29L11,29ZM65,20L74,20L74,29L65,29ZM83,20L92,20L92,29L83,29ZM101,20L110,20L110,29L101,29ZM128,20L137,20L137,29L128,29ZM146,20L173,20L173,29L146,29ZM182,20L191,20L191,29L182,29ZM209,20L236,20L236,29L209,29ZM245,20L254,20L254,29L245,29ZM299,20L308,20L308,29L299,29ZM11,29L20,29L20,38L11,38ZM29,29L56,29L56,38L29,38ZM65,29L74,29L74,38L65,38ZM119,29L128,29L128,38L119,38ZM137,29L146,29L146,38L137,38ZM173,29L200,29L200,38L173,38ZM218,29L227,29L227,38L218,38ZM245,29L254,29L254,38L245,38ZM263,29L290,29L290,38L263,38ZM299,29L308,29L308,38L299,38ZM11,38L20,38L20,47L11,47ZM29,38L56,38L56,47L29,47ZM65,38L74,38L74,47L65,47ZM83,38L110,38L110,47L83,47ZM119,38L164,38L164,47L119,47ZM200,38L218,38L218,47L200,47ZM227,38L236,38L236,47L227,47ZM245,38L254,38L254,47L245,47ZM263,38L290,38L290,47L263,47ZM299,38L308,38L308,47L299,47ZM11,47L20,47L20,56L11,56ZM29,47L56,47L56,56L29,56ZM65,47L74,47L74,56L65,56ZM92,47L101,47L101,56L92,56ZM173,47L191,47L191,56L173,56ZM200,47L209,47L209,56L200,56ZM218,47L227,47L227,56L218,56ZM245,47L254,47L254,56L245,56ZM263,47L290,47L290,56L263,56ZM299,47L308,47L308,56L299,56ZM11,56L20,56L20,65L11,65ZM65,56L74,56L74,65L65,65ZM83,56L101,56L101,65L83,65ZM110,56L137,56L137,65L110,65ZM146,56L173,56L173,65L146,65ZM191,56L200,56L200,65L191,65ZM209,56L218,56L218,65L209,65ZM227,56L236,56L236,65L227,65ZM245,56L254,56L254,65L245,65ZM299,56L308,56L308,65L299,65ZM11,65L74,65L74,74L11,74ZM83,65L92,65L92,74L83,74ZM101,65L110,65L110,74L101,74ZM119,65L128,65L128,74L119,74ZM137,65L146,65L146,74L137,74ZM155,65L164,65L164,74L155,74ZM173,65L182,65L182,74L173,74ZM191,65L200,65L200,74L191,74ZM209,65L218,65L218,74L209,74ZM227,65L236,65L236,74L227,74ZM245,65L308,65L308,74L245,74ZM92,74L119,74L119,83L92,83ZM137,74L146,74L146,83L137,83ZM182,74L209,74L209,83L182,83ZM218,74L227,74L227,83L218,83ZM11,83L56,83L56,92L11,92ZM65,83L101,83L101,92L65,92ZM110,83L119,83L119,92L110,92ZM137,83L155,83L155,92L137,92ZM164,83L182,83L182,92L164,92ZM200,83L218,83L218,92L200,92ZM227,83L245,83L245,92L227,92ZM254,83L263,83L263,92L254,92ZM272,83L281,83L281,92L272,92ZM290,83L299,83L299,92L290,92ZM11,92L20,92L20,101L11,101ZM29,92L47,92L47,101L29,101ZM83,92L92,92L92,101L83,101ZM101,92L110,92L110,101L101,101ZM119,92L128,92L128,101L119,101ZM146,92L155,92L155,101L146,101ZM173,92L191,92L191,101L173,101ZM200,92L254,92L254,101L200,101ZM263,92L290,92L290,101L263,101ZM11,101L20,101L20,110L11,110ZM29,101L38,101L38,110L29,110ZM47,101L56,101L56,110L47,110ZM65,101L74,101L74,110L65,110ZM83,101L92,101L92,110L83,110ZM101,101L110,101L110,110L101,110ZM128,101L137,101L137,110L128,110ZM146,101L173,101L173,110L146,110ZM191,101L200,101L200,110L191,110ZM209,101L218,101L218,110L209,110ZM236,101L245,101L245,110L236,110ZM254,101L281,101L281,110L254,110ZM290,101L299,101L299,110L290,110ZM20,110L29,110L29,119L20,119ZM47,110L56,110L56,119L47,119ZM74,110L83,110L83,119L74,119ZM119,110L146,110L146,119L119,119ZM164,110L227,110L227,119L164,119ZM236,110L254,110L254,119L236,119ZM281,110L308,110L308,119L281,119ZM38,119L47,119L47,128L38,128ZM65,119L74,119L74,128L65,128ZM83,119L110,119L110,128L83,128ZM119,119L128,119L128,128L119,128ZM146,119L155,119L155,128L146,128ZM173,119L182,119L182,128L173,128ZM191,119L200,119L200,128L191,128ZM254,119L263,119L263,128L254,128ZM281,119L299,119L299,128L281,128ZM29,128L47,128L47,137L29,137ZM92,128L101,128L101,137L92,137ZM137,128L155,128L155,137L137,137ZM191,128L218,128L218,137L191,137ZM236,128L272,128L272,137L236,137ZM281,128L290,128L290,137L281,137ZM47,137L83,137L83,146L47,146ZM110,137L137,137L137,146L110,146ZM155,137L173,137L173,146L155,146ZM227,137L245,137L245,146L227,146ZM254,137L281,137L281,146L254,146ZM290,137L299,137L299,146L290,146ZM11,146L20,146L20,155L11,155ZM47,146L56,146L56,155L47,155ZM83,146L119,146L119,155L83,155ZM137,146L146,146L146,155L137,155ZM173,146L200,146L200,155L173,155ZM218,146L227,146L227,155L218,155ZM236,146L254,146L254,155L236,155ZM290,146L308,146L308,155L290,155ZM11,155L38,155L38,164L11,164ZM65,155L74,155L74,164L65,164ZM92,155L101,155L101,164L92,164ZM110,155L119,155L119,164L110,164ZM146,155L155,155L155,164L146,164ZM164,155L173,155L173,164L164,164ZM209,155L218,155L218,164L209,164ZM227,155L245,155L245,164L227,164ZM254,155L263,155L263,164L254,164ZM290,155L299,155L299,164L290,164ZM11,164L38,164L38,173L11,173ZM74,164L83,164L83,173L74,173ZM92,164L110,164L110,173L92,173ZM119,164L128,164L128,173L119,173ZM137,164L155,164L155,173L137,173ZM200,164L218,164L218,173L200,173ZM227,164L236,164L236,173L227,173ZM263,164L272,164L272,173L263,173ZM281,164L290,164L290,173L281,173ZM11,173L20,173L20,182L11,182ZM65,173L74,173L74,182L65,182ZM83,173L92,173L92,182L83,182ZM101,173L110,173L110,182L101,182ZM128,173L137,173L137,182L128,182ZM146,173L173,173L173,182L146,182ZM182,173L191,173L191,182L182,182ZM209,173L218,173L218,182L209,182ZM254,173L272,173L272,182L254,182ZM299,173L308,173L308,182L299,182ZM20,182L29,182L29,191L20,191ZM38,182L47,182L47,191L38,191ZM74,182L110,182L110,191L74,191ZM119,182L128,182L128,191L119,191ZM137,182L146,182L146,191L137,191ZM182,182L209,182L209,191L182,191ZM218,182L227,182L227,191L218,191ZM245,182L254,182L254,191L245,191ZM272,182L281,182L281,191L272,191ZM299,182L308,182L308,191L299,191ZM20,191L29,191L29,200L20,200ZM65,191L110,191L110,200L65,200ZM119,191L155,191L155,200L119,200ZM236,191L254,191L254,200L236,200ZM272,191L281,191L281,200L272,200ZM290,191L299,191L299,200L290,200ZM11,200L47,200L47,209L11,209ZM83,200L92,200L92,209L83,209ZM101,200L110,200L110,209L101,209ZM137,200L164,200L164,209L137,209ZM200,200L227,200L227,209L200,209ZM236,200L263,200L263,209L236,209ZM281,200L308,200L308,209L281,209ZM11,209L20,209L20,218L11,218ZM29,209L47,209L47,218L29,218ZM65,209L74,209L74,218L65,218ZM101,209L128,209L128,218L101,218ZM146,209L173,209L173,218L146,218ZM191,209L200,209L200,218L191,218ZM209,209L245,209L245,218L209,218ZM254,209L272,209L272,218L254,218ZM290,209L308,209L308,218L290,218ZM11,218L20,218L20,227L11,227ZM29,218L56,218L56,227L29,227ZM74,218L92,218L92,227L74,227ZM110,218L119,218L119,227L110,227ZM173,218L236,218L236,227L173,227ZM245,218L254,218L254,227L245,227ZM272,218L281,218L281,227L272,227ZM290,218L308,218L308,227L290,227ZM11,227L20,227L20,236L11,236ZM47,227L74,227L74,236L47,236ZM110,227L119,227L119,236L110,236ZM146,227L155,227L155,236L146,236ZM191,227L200,227L200,236L191,236ZM227,227L281,227L281,236L227,236ZM83,236L92,236L92,245L83,245ZM119,236L137,236L137,245L119,245ZM182,236L209,236L209,245L182,245ZM227,236L236,236L236,245L227,245ZM263,236L290,236L290,245L263,245ZM11,245L74,245L74,254L11,254ZM83,245L110,245L110,254L83,254ZM128,245L173,245L173,254L128,254ZM182,245L191,245L191,254L182,254ZM209,245L218,245L218,254L209,254ZM227,245L236,245L236,254L227,254ZM245,245L254,245L254,254L245,254ZM263,245L272,245L272,254L263,254ZM290,245L299,245L299,254L290,254ZM11,254L20,254L20,263L11,263ZM65,254L74,254L74,263L65,263ZM92,254L110,254L110,263L92,263ZM119,254L137,254L137,263L119,263ZM164,254L173,254L173,263L164,263ZM182,254L200,254L200,263L182,263ZM227,254L236,254L236,263L227,263ZM263,254L281,254L281,263L263,263ZM299,254L308,254L308,263L299,263ZM11,263L20,263L20,272L11,272ZM29,263L56,263L56,272L29,272ZM65,263L74,263L74,272L65,272ZM83,263L101,263L101,272L83,272ZM119,263L128,263L128,272L119,272ZM137,263L155,263L155,272L137,272ZM164,263L182,263L182,272L164,272ZM200,263L209,263L209,272L200,272ZM227,263L272,263L272,272L227,272ZM281,263L290,263L290,272L281,272ZM299,263L308,263L308,272L299,272ZM11,272L20,272L20,281L11,281ZM29,272L56,272L56,281L29,281ZM65,272L74,272L74,281L65,281ZM83,272L92,272L92,281L83,281ZM146,272L155,272L155,281L146,281ZM173,272L182,272L182,281L173,281ZM191,272L227,272L227,281L191,281ZM263,272L299,272L299,281L263,281ZM11,281L20,281L20,290L11,290ZM29,281L56,281L56,290L29,290ZM65,281L74,281L74,290L65,290ZM83,281L92,281L92,290L83,290ZM110,281L128,281L128,290L110,290ZM146,281L182,281L182,290L146,290ZM191,281L200,281L200,290L191,290ZM209,281L245,281L245,290L209,290ZM254,281L263,281L263,290L254,290ZM11,290L20,290L20,299L11,299ZM65,290L74,290L74,299L65,299ZM83,290L92,290L92,299L83,299ZM110,290L119,290L119,299L110,299ZM137,290L146,290L146,299L137,299ZM182,290L218,290L218,299L182,299ZM227,290L245,290L245,299L227,299ZM254,290L281,290L281,299L254,299ZM290,290L308,290L308,299L290,299ZM11,299L74,299L74,308L11,308ZM83,299L101,299L101,308L83,308ZM110,299L119,299L119,308L110,308ZM146,299L155,299L155,308L146,308ZM164,299L182,299L182,308L164,308ZM191,299L200,299L200,308L191,308ZM227,299L254,299L254,308L227,308ZM272,299L281,299L281,308L272,308ZM290,299L299,299L299,308L290,308Z"/></svg>
