<?xml version="1.0"?>
<svg xmlns="http://www.w3.org/2000/svg" xmlns:xlink="http://www.w3.org/1999/xlink" version="1.1" width="320px" height="320px" viewBox="0 0 320 320"><rect x="0" y="0" width="320" height="320" fill="#ffffff" fill-opacity="1"/><path fill="#000000" fill-opacity="1" d="M11,11L74,11L74,20L11,20ZM83,11L92,11L92,20L83,20ZM128,11L137,11L137,20L128,20ZM209,11L218,11L218,20L209,20ZM227,11L236,11L236,20L227,20ZM245,11L308,11L308,20L245,20ZM11,20L20,20L20,29L11,29ZM65,20L74,20L74,29L65,29ZM83,20L92,20L92,29L83,29ZM110,20L128,20L128,29L110,29ZM137,20L146,20L146,29L137,29ZM155,20L173,20L173,29L155,29ZM191,20L236,20L236,29L191,29ZM245,20L254,20L254,29L245,29ZM299,20L308,20L308,29L299,29ZM11,29L20,29L20,38L11,38ZM29,29L56,29L56,38L29,38ZM65,29L74,29L74,38L65,38ZM83,29L101,29L101,38L83,38ZM119,29L128,29L128,38L119,38ZM137,29L146,29L146,38L137,38ZM155,29L173,29L173,38L155,38ZM182,29L200,29L200,38L182,38ZM209,29L218,29L218,38L209,38ZM227,29L236,29L236,38L227,38ZM245,29L254,29L254,38L245,38ZM263,29L290,29L290,38L263,38ZM299,29L308,29L308,38L299,38ZM11,38L20,38L20,47L11,47ZM29,38L56,38L56,47L29,47ZM65,38L74,38L74,47L65,47ZM83,38L110,38L110,47L83,47ZM119,38L128,38L128,47L119,47ZM146,38L155,38L155,47L146,47ZM164,38L182,38L182,47L164,47ZM191,38L209,38L209,47L191,47ZM218,38L227,38L227,47L218,47ZM245,38L254,38L254,47L245,47ZM263,38L290,38L290,47L263,47ZM299,38L308,38L308,47L299,47ZM11,47L20,47L20,56L11,56ZM29,47L56,47L56,56L29,56ZM65,47L74,47L74,56L65,56ZM92,47L110,47L110,56L92,56ZM119,47L155,47L155,56L119,56ZM173,47L191,47L191,56L173,56ZM218,47L227,47L227,56L218,56ZM245,47L254,47L254,56L245,56ZM263,47L290,47L290,56L263,56ZM299,47L308,47L308,56L299,56ZM11,56L20,56L20,65L11,65ZM65,56L74,56L74,65L65,65ZM83,56L110,56L110,65L83,65ZM137,56L146,56L146,65L137,65ZM155,56L173,56L173,65L155,65ZM191,56L218,56L218,65L191,65ZM227,56L236,56L236,65L227,65ZM245,56L254,56L254,65L245,65ZM299,56L308,56L308,65L299,65ZM11,65L74,65L74,74L11,74ZM83,65L92,65L92,74L83,74ZM101,65L110,65L110,74L101,74ZM119,65L128,65L128,74L119,74ZM137,65L146,65L146,74L137,74ZM155,65L164,65L164,74L155,74ZM173,65L182,65L182,74L173,74ZM191,65L200,65L200,74L191,74ZM209,65L218,65L218,74L209,74ZM227,65L236,65L236,74L227,74ZM245,65L308,65L308,74L245,74ZM101,74L119,74L119,83L101,83ZM137,74L146,74L146,83L137,83ZM155,74L164,74L164,83L155,83ZM182,74L218,74L218,83L182,83ZM227,74L236,74L236,83L227,83ZM11,83L29,83L29,92L11,92ZM47,83L74,83L74,92L47,92ZM101,83L110,83L110,92L101,92ZM119,83L128,83L128,92L119,92ZM155,83L164,83L164,92L155,92ZM173,83L191,83L191,92L173,92ZM209,83L218,83L218,92L209,92ZM227,83L236,83L236,92L227,92ZM254,83L263,83L263,92L254,92ZM272,83L308,83L308,92L272,92ZM29,92L56,92L56,101L29,101ZM74,92L83,92L83,101L74,101ZM128,92L164,92L164,101L128,101ZM209,92L236,92L236,101L209,101ZM254,92L308,92L308,101L254,101ZM20,101L29,101L29,110L20,110ZM38,101L47,101L47,110L38,110ZM65,101L110,101L110,110L65,110ZM128,101L137,101L137,110L128,110ZM146,101L155,101L155,110L146,110ZM173,101L191,101L191,110L173,110ZM218,101L245,101L245,110L218,110ZM254,101L263,101L263,110L254,110ZM281,101L299,101L299,110L281,110ZM20,110L29,110L29,119L20,119ZM47,110L56,110L56,119L47,119ZM83,110L101,110L101,119L83,119ZM119,110L128,110L128,119L119,119ZM137,110L146,110L146,119L137,119ZM155,110L173,110L173,119L155,119ZM182,110L209,110L209,119L182,119ZM227,110L254,110L254,119L227,119ZM263,110L281,110L281,119L263,119ZM290,110L308,110L308,119L290,119ZM11,119L20,119L20,128L11,128ZM29,119L38,119L38,128L29,128ZM47,119L56,119L56,128L47,128ZM65,119L74,119L74,128L65,128ZM83,119L92,119L92,128L83,128ZM110,119L119,119L119,128L110,128ZM128,119L146,119L146,128L128,128ZM164,119L173,119L173,128L164,128ZM182,119L209,119L209,128L182,128ZM236,119L254,119L254,128L236,128ZM281,119L290,119L290,128L281,128ZM299,119L308,119L308,128L299,128ZM92,128L110,128L110,137L92,137ZM119,128L137,128L137,137L119,137ZM173,128L191,128L191,137L173,137ZM209,128L218,128L218,137L209,137ZM263,128L272,128L272,137L263,137ZM281,128L308,128L308,137L281,137ZM38,137L47,137L47,146L38,146ZM65,137L74,137L74,146L65,146ZM83,137L101,137L101,146L83,146ZM110,137L137,137L137,146L110,146ZM146,137L155,137L155,146L146,146ZM173,137L182,137L182,146L173,146ZM209,137L227,137L227,146L209,146ZM236,137L245,137L245,146L236,146ZM254,137L263,137L263,146L254,146ZM281,137L299,137L299,146L281,146ZM11,146L20,146L20,155L11,155ZM47,146L56,146L56,155L47,155ZM101,146L119,146L119,155L101,155ZM137,146L146,146L146,155L137,155ZM155,146L164,146L164,155L155,155ZM182,146L200,146L200,155L182,155ZM209,146L218,146L218,155L209,155ZM227,146L254,146L254,155L227,155ZM263,146L308,146L308,155L263,155ZM29,155L38,155L38,164L29,164ZM47,155L56,155L56,164L47,164ZM65,155L74,155L74,164L65,164ZM101,155L110,155L110,164L101,164ZM119,155L146,155L146,164L119,164ZM173,155L191,155L191,164L173,164ZM200,155L218,155L218,164L200,164ZM227,155L236,155L236,164L227,164ZM245,155L254,155L254,164L245,164ZM299,155L308,155L308,164L299,164ZM38,164L56,164L56,173L38,173ZM83,164L110,164L110,173L83,173ZM128,164L146,164L146,173L128,173ZM155,164L164,164L164,173L155,173ZM182,164L200,164L200,173L182,173ZM209,164L218,164L218,173L209,173ZM227,164L272,164L272,173L227,173ZM281,164L308,164L308,173L281,173ZM11,173L38,173L38,182L11,182ZM56,173L74,173L74,182L56,182ZM101,173L110,173L110,182L101,182ZM128,173L137,173L137,182L128,182ZM146,173L155,173L155,182L146,182ZM173,173L182,173L182,182L173,182ZM218,173L236,173L236,182L218,182ZM254,173L263,173L263,182L254,182ZM272,173L290,173L290,182L272,182ZM299,173L308,173L308,182L299,182ZM47,182L65,182L65,191L47,191ZM119,182L128,182L128,191L119,191ZM137,182L146,182L146,191L137,191ZM155,182L173,182L173,191L155,191ZM182,182L200,182L200,191L182,191ZM209,182L218,182L218,191L209,191ZM227,182L236,182L236,191L227,191ZM245,182L254,182L254,191L245,191ZM263,182L272,182L272,191L263,191ZM281,182L290,182L290,191L281,191ZM299,182L308,182L308,191L299,191ZM11,191L20,191L20,200L11,200ZM38,191L47,191L47,200L38,200ZM65,191L92,191L92,200L65,200ZM110,191L119,191L119,200L110,200ZM128,191L146,191L146,200L128,200ZM164,191L191,191L191,200L164,200ZM209,191L218,191L218,200L209,200ZM254,191L263,191L263,200L254,200ZM272,191L281,191L281,200L272,200ZM299,191L308,191L308,200L299,200ZM11,200L20,200L20,209L11,209ZM29,200L38,200L38,209L29,209ZM83,200L92,200L92,209L83,209ZM101,200L110,200L110,209L101,209ZM119,200L137,200L137,209L119,209ZM146,200L155,200L155,209L146,209ZM191,200L200,200L200,209L191,209ZM209,200L227,200L227,209L209,209ZM281,200L308,200L308,209L281,209ZM47,209L83,209L83,218L47,218ZM92,209L101,209L101,218L92,218ZM110,209L137,209L137,218L110,218ZM146,209L155,209L155,218L146,218ZM173,209L182,209L182,218L173,218ZM236,209L245,209L245,218L236,218ZM254,209L263,209L263,218L254,218ZM272,209L290,209L290,218L272,218ZM56,218L65,218L65,227L56,227ZM74,218L101,218L101,227L74,227ZM110,218L119,218L119,227L110,227ZM137,218L146,218L146,227L137,227ZM155,218L173,218L173,227L155,227ZM182,218L200,218L200,227L182,227ZM209,218L218,218L218,227L209,227ZM245,218L254,218L254,227L245,227ZM263,218L272,218L272,227L263,227ZM281,218L290,218L290,227L281,227ZM11,227L29,227L29,236L11,236ZM38,227L74,227L74,236L38,236ZM83,227L92,227L92,236L83,236ZM101,227L110,227L110,236L101,236ZM119,227L146,227L146,236L119,236ZM173,227L191,227L191,236L173,236ZM200,227L218,227L218,236L200,236ZM227,227L281,227L281,236L227,236ZM299,227L308,227L308,236L299,236ZM83,236L101,236L101,245L83,245ZM128,236L137,236L137,245L128,245ZM182,236L200,236L200,245L182,245ZM209,236L218,236L218,245L209,245ZM227,236L236,236L236,245L227,245ZM263,236L308,236L308,245L263,245ZM11,245L74,245L74,254L11,254ZM92,245L101,245L101,254L92,254ZM146,245L155,245L155,254L146,254ZM173,245L191,245L191,254L173,254ZM218,245L236,245L236,254L218,254ZM245,245L254,245L254,254L245,254ZM263,245L299,245L299,254L263,254ZM11,254L20,254L20,263L11,263ZM65,254L74,254L74,263L65,263ZM83,254L92,254L92,263L83,263ZM101,254L110,254L110,263L101,263ZM119,254L128,254L128,263L119,263ZM155,254L173,254L173,263L155,263ZM182,254L236,254L236,263L182,263ZM263,254L272,254L272,263L263,263ZM281,254L290,254L290,263L281,263ZM299,254L308,254L308,263L299,263ZM11,263L20,263L20,272L11,272ZM29,263L56,263L56,272L29,272ZM65,263L74,263L74,272L65,272ZM83,263L92,263L92,272L83,272ZM110,263L119,263L119,272L110,272ZM128,263L146,263L146,272L128,272ZM182,263L200,263L200,272L182,272ZM209,263L218,263L218,272L209,272ZM227,263L272,263L272,272L227,272ZM281,263L299,263L299,272L281,272ZM11,272L20,272L20,281L11,281ZM29,272L56,272L56,281L29,281ZM65,272L74,272L74,281L65,281ZM101,272L110,272L110,281L101,281ZM119,272L128,272L128,281L119,281ZM137,272L155,272L155,281L137,281ZM173,272L182,272L182,281L173,281ZM218,272L227,272L227,281L218,281ZM236,272L290,272L290,281L236,281ZM299,272L308,272L308,281L299,281ZM11,281L20,281L20,290L11,290ZM29,281L56,281L56,290L29,290ZM65,281L74,281L74,290L65,290ZM92,281L101,281L101,290L92,290ZM110,281L155,281L155,290L110,290ZM173,281L182,281L182,290L173,290ZM236,281L245,281L245,290L236,290ZM254,281L290,281L290,290L254,290ZM11,290L20,290L20,299L11,299ZM65,290L74,290L74,299L65,299ZM83,290L101,290L101,299L83,299ZM110,290L119,290L119,299L110,299ZM128,290L137,290L137,299L128,299ZM155,290L164,290L164,299L155,299ZM182,290L200,290L200,299L182,299ZM209,290L227,290L227,299L209,299ZM236,290L245,290L245,299L236,299ZM254,290L263,290L263,299L254,299ZM281,290L308,290L308,299L281,299ZM11,299L74,299L74,308L11,308ZM83,299L101,299L101,308L83,308ZM119,299L137,299L137,308L119,308ZM155,299L173,299L173,308L155,308ZM182,299L191,299L191,308L182,308ZM227,299L236,299L236,308L227,308ZM254,299L263,299L263,308L254,308ZM272,299L281,299L281,308L272,308ZM299,299L308,299L308,308L299,308Z"/></svg>
